<svg width="1226" height="157" xmlns="http://www.w3.org/2000/svg" xmlns:xlink="http://www.w3.org/1999/xlink" xml:space="preserve" overflow="hidden"><g transform="translate(-28 -80)"><path d="M168.407 101.84 160.43 101.687 158.433 101.652C158.321 101.65 158.205 101.648 158.089 101.646 157.562 101.638 157.064 101.63 156.593 101.584 156.579 101.582 156.564 101.581 156.55 101.58 156.491 101.576 156.41 101.566 156.324 101.555 156.274 101.549 156.225 101.542 156.175 101.536 156.136 101.53 156.097 101.524 156.058 101.518 155.965 101.504 155.878 101.49 155.814 101.477 155.803 101.474 155.792 101.472 155.781 101.47 155.507 101.418 155.267 101.357 155.048 101.284 155.044 101.283 155.04 101.282 155.037 101.28 154.538 101.119 154.003 100.847 153.453 100.558 153.448 100.556 153.443 100.553 153.439 100.551 152.702 100.173 151.951 99.8647 151.206 99.6349 150.492 99.4105 149.743 99.2459 148.916 99.1308 148.211 99.0338 147.457 98.979 146.67 98.9689 146.624 98.9686 146.585 98.9684 146.547 98.9684 145.758 98.9684 144.996 99.0353 144.283 99.1678 143.442 99.3238 142.63 99.5743 141.871 99.913 141.479 100.088 141.091 100.292 140.712 100.519 140.347 100.739 139.986 100.984 139.633 101.249 139.34 101.468 139.064 101.691 138.797 101.908L138.703 101.984 138.583 102.081C138.351 102.269 138.132 102.447 137.929 102.594 137.73 102.739 137.559 102.842 137.406 102.909 137.26 102.975 137.101 103.023 136.916 103.058 136.74 103.088 136.53 103.108 136.257 103.119L136.092 103.12C135.973 102.97 135.834 102.756 135.665 102.47 135.621 102.395 135.578 102.32 135.535 102.245L135.393 101.988 135.359 101.925C135.353 101.914 135.347 101.904 135.341 101.893L135.312 101.842C135.309 101.837 135.306 101.832 135.303 101.827L135.283 101.793 135.203 101.656 135.044 101.387C134.834 101.032 134.584 100.618 134.311 100.216 133.721 99.3414 133.071 98.5923 132.382 97.9928 132.026 97.6822 131.64 97.3917 131.237 97.134 131.233 97.1312 131.23 97.1292 131.226 97.1268 130.853 96.8918 130.449 96.6747 130.026 96.4819 129.669 96.32 129.283 96.1756 128.811 96.0261 128.795 96.0214 128.779 96.0164 128.763 96.012 128.442 95.9195 128.014 95.8032 127.552 95.7224L127.49 95.7108C127.41 95.6953 127.329 95.6806 127.249 95.6687L126.999 95.6325C126.832 95.6056 126.681 95.5906 126.548 95.5773 126.504 95.5731 126.459 95.5683 126.414 95.5634 126.256 95.5456 126.111 95.5367 125.983 95.529 125.931 95.5257 125.879 95.5229 125.829 95.5191 125.726 95.5108 125.631 95.5081 125.561 95.5064L125.506 95.5048C125.501 95.5046 125.496 95.5044 125.491 95.5042L125.242 95.497 125.185 95.4952C125.169 95.4945 125.152 95.4943 125.136 95.4941L125.065 95.4937C125.06 95.4937 125.055 95.4937 125.051 95.4937L124.924 95.4941 124.901 95.4939C124.81 95.4939 124.719 95.4968 124.627 95.4998L124.616 95.5002C124.501 95.5029 124.396 95.5088 124.298 95.515 124.173 95.5217 124.057 95.5323 123.969 95.5411 123.528 95.5825 123.092 95.6536 122.677 95.7523 121.702 95.9854 120.808 96.3794 120.016 96.9249 119.169 97.5051 118.393 98.3089 117.775 99.2479 117.24 100.054 116.771 101.028 116.384 102.139 116.096 102.963 115.842 103.881 115.583 105.027 115.455 105.592 115.34 106.153 115.23 106.696 115.16 107.039 115.09 107.38 115.018 107.717 115.018 107.721 115.017 107.726 115.016 107.73L115.012 107.747C114.948 108.058 114.885 108.363 114.822 108.662 114.745 108.201 114.669 107.7 114.591 107.148 114.325 105.244 114.136 103.335 113.935 101.314 113.859 100.549 113.781 99.7575 113.698 98.9735 113.571 97.7556 113.413 96.2379 113.231 94.77 113.015 93.0308 112.811 91.6973 112.567 90.4453 112.343 89.3062 111.967 87.6059 111.295 85.9503 110.942 85.0908 110.56 84.3598 110.123 83.7087 109.616 82.9517 109.032 82.3035 108.388 81.7824 107.755 81.2655 107.032 80.8565 106.247 80.5726 105.906 80.4476 105.55 80.3487 105.158 80.2697 104.986 80.2333 104.831 80.2104 104.695 80.1901L104.642 80.1822C104.619 80.1786 104.596 80.1758 104.572 80.1732L104.373 80.1512C104.276 80.1396 104.174 80.1308 104.055 80.124L104.003 80.1207C103.935 80.1163 103.868 80.112 103.806 80.1095 103.8 80.1093 103.794 80.1091 103.788 80.1089L103.599 80.1039C103.558 80.1027 103.505 80.1014 103.461 80.1014 103.444 80.1014 103.427 80.1016 103.411 80.1017L103.317 80.1027C103.312 80.1027 103.307 80.1028 103.302 80.1028L103.26 80.1034C103.205 80.1038 103.132 80.1045 103.047 80.1089 102.712 80.1205 102.357 80.1574 101.992 80.2177 101.183 80.3522 100.413 80.6233 99.7035 81.0232 98.9676 81.4369 98.2632 82.0346 97.6677 82.7506 97.1623 83.3533 96.7078 84.0715 96.2838 84.9399 96.1164 85.2856 95.9569 85.6531 95.7922 86.0696 95.6549 86.4214 95.5248 86.7867 95.3912 87.1949 95.1703 87.8795 94.9694 88.6025 94.7748 89.413 94.4732 90.6835 94.2111 92.0566 93.9479 93.7393 93.7525 94.9909 93.5699 96.3397 93.373 97.9855 93.2148 99.3152 93.0707 100.636 92.931 102.014 92.8294 100.284 92.7246 98.5115 92.6101 96.7558L92.5412 95.7194 92.4773 94.6823 92.3446 92.5881C92.2464 91.0649 92.1549 89.6935 92.0645 88.3928 91.8296 85.0139 91.6262 82.4184 91.4058 79.9769 91.2646 78.415 91.1246 77.0272 90.977 75.7337 90.7894 74.0861 90.6052 72.7182 90.3977 71.4289 90.1987 70.2062 89.9103 68.5951 89.4387 66.9482 89.4375 66.9444 89.4364 66.9405 89.4353 66.9367 89.1605 66.0005 88.8791 65.2356 88.5496 64.5293 88.329 64.061 88.1021 63.6506 87.8536 63.2681 87.5594 62.8153 87.2344 62.4066 86.8876 62.0537 86.5112 61.669 86.0944 61.336 85.6509 61.0664 85.2374 60.8141 84.7873 60.6099 84.3161 60.4612 83.921 60.3368 83.5157 60.2506 83.0761 60.1971 82.6626 60.1462 82.259 60.1352 81.9936 60.135 81.5979 60.135 81.2372 60.1567 80.8902 60.2015 80.4155 60.2631 79.9826 60.3664 79.5651 60.5171 79.0608 60.6985 78.582 60.953 78.1444 61.2728 77.7133 61.5856 77.3073 61.9745 76.9419 62.4253 76.637 62.8 76.3573 63.2207 76.0893 63.709 75.875 64.1014 75.6817 64.5135 75.4957 64.9727 75.2129 65.6735 74.9679 66.4259 74.7238 67.3428 74.3006 68.9576 74.033 70.4879 73.8266 71.7728 73.6211 73.0666 73.4364 74.4274 73.2445 76.059 73.0914 77.367 72.9452 78.7517 72.797 80.2929 72.562 82.7501 72.3372 85.4225 72.0902 88.704 71.6925 94.0183 71.3606 99.2448 70.9847 105.458L70.7364 109.641 70.6752 110.687 70.66 110.95 70.6512 111.115C70.651 111.119 70.6508 111.123 70.6506 111.127L70.6445 111.258 70.6203 111.785 70.5938 112.39 70.3485 105.77C70.2843 104.128 70.2295 102.791 70.1751 101.561L70.077 99.4552 69.9743 97.3593 69.5528 88.9899C69.3908 85.8891 69.243 83.1502 69.1013 80.613 68.8218 75.6378 68.4779 69.7552 68.046 63.8436 67.7964 60.4581 67.5779 57.8603 67.3377 55.4196 67.1813 53.8416 67.0273 52.4529 66.8665 51.1731 66.6558 49.5023 66.45 48.1311 66.2184 46.8573 66.0683 46.0335 65.9148 45.3039 65.7496 44.6255 65.5281 43.7193 65.3032 42.9708 65.0413 42.2685 64.8605 41.7896 64.6776 41.374 64.4802 40.9914 64.2163 40.481 63.9379 40.0453 63.628 39.6577 63.254 39.1868 62.809 38.77 62.3446 38.4566 61.889 38.1464 61.3803 37.9097 60.8389 37.7575 60.4391 37.6445 60.0319 37.5757 59.5601 37.5419 59.3914 37.53 59.2199 37.5228 59.0345 37.5201 59.0293 37.5201 59.0236 37.5201 59.0183 37.5201L58.8165 37.5188C58.8114 37.5184 58.8069 37.5184 58.8031 37.5184 58.7952 37.5184 58.7871 37.5184 58.7792 37.5186L58.573 37.5213C58.5671 37.5213 58.5614 37.5215 58.5555 37.5217 58.1554 37.5309 57.8108 37.5588 57.471 37.6097 57.0018 37.6801 56.5752 37.791 56.1656 37.9488 55.6688 38.1394 55.1994 38.4031 54.7727 38.7314 54.3516 39.0536 53.9591 39.4505 53.6095 39.9083 53.318 40.2888 53.0537 40.7111 52.804 41.1969 52.5665 41.6552 52.3855 42.1082 52.2548 42.4512 52.2534 42.4551 52.2519 42.4587 52.2504 42.4626 51.9834 43.1775 51.7588 43.9285 51.544 44.8253 51.3815 45.5013 51.231 46.2329 51.0841 47.0614 50.9641 47.7365 50.8522 48.4508 50.7417 49.2448 50.6418 49.9619 50.5493 50.6853 50.4673 51.394 50.3185 52.6625 50.1808 54.0133 50.0343 55.642 49.9175 56.9428 49.8046 58.3229 49.6892 59.8617 49.5067 62.2968 49.3292 64.9667 49.1307 68.2634 48.9715 70.9233 48.8177 73.6652 48.6602 76.646L48.4448 80.8323 48.3398 82.9269 48.288 83.9732 48.2621 84.4958 48.238 85.0375C48.1355 87.3748 48.0408 89.7447 47.9493 92.0365L47.894 93.4208C47.7867 96.1094 47.6714 98.9689 47.5486 101.776 47.5047 102.796 47.4621 103.755 47.4204 104.667 47.4115 104.564 47.4029 104.461 47.3945 104.358L47.2241 102.282C47.0195 99.7265 46.8346 97.1132 46.6558 94.586L46.6124 93.9725C46.5062 92.4841 46.4092 91.1415 46.2939 89.7683 46.1785 88.4081 46.0433 86.9472 45.8365 85.4697 45.7152 84.6104 45.5899 83.898 45.4416 83.2263 45.2298 82.2777 44.9985 81.5224 44.7125 80.845 44.5217 80.3932 44.305 79.9788 44.0685 79.6127 43.7902 79.1808 43.4717 78.7971 43.1229 78.4736 42.7668 78.142 42.3632 77.8618 41.9256 77.6427 41.5462 77.453 41.134 77.3067 40.7008 77.2084 40.3474 77.1279 39.9896 77.081 39.575 77.0603 39.439 77.054 39.309 77.0511 39.1818 77.0511 38.9732 77.0511 38.7613 77.0592 38.5524 77.0753 37.7457 77.1351 37.0303 77.304 36.3707 77.5912 35.9691 77.7653 35.5866 77.9873 35.2358 78.2501 34.8754 78.5193 34.5359 78.845 34.2292 79.2174 33.7076 79.8487 33.2691 80.6362 32.9276 81.5566 32.6773 82.2281 32.472 82.96 32.2827 83.8568 32.1473 84.4984 32.0297 85.1736 31.9018 86.0459 31.7215 87.292 31.5783 88.5389 31.4397 89.7451L31.3816 90.2509C31.2225 91.6396 31.0652 92.9966 30.8889 94.3498 30.7965 95.0596 30.7051 95.7218 30.6103 96.3739 30.6094 96.3796 30.6086 96.3855 30.6079 96.3913 30.528 96.9791 30.4089 97.5319 30.2539 98.034 30.0996 98.5291 29.906 98.9776 29.68 99.3618 29.4618 99.7322 29.2084 100.057 28.9263 100.327 28.3983 100.835 27.7513 101.198 26.9462 101.442 26.2257 101.661 25.4118 101.777 24.4579 101.799L21.438 101.854 15.3782 101.971C14.3771 101.991 13.5758 102.808 13.5758 103.809 13.5758 104.81 14.3771 105.627 15.3782 105.646L21.4359 105.763 24.4684 105.817C24.4726 105.818 24.477 105.818 24.4814 105.818 24.5456 105.819 24.6097 105.819 24.6739 105.819 25.9061 105.819 27.0002 105.687 28.0184 105.415 28.6791 105.238 29.3019 105 29.8709 104.707 30.5252 104.371 31.128 103.953 31.6606 103.465 32.2267 102.95 32.7325 102.335 33.1605 101.64 33.5674 100.98 33.9107 100.232 34.1807 99.4162 34.4209 98.6877 34.6069 97.8991 34.7344 97.0699 34.8408 96.4165 34.9489 95.7187 35.0557 94.9955 35.2702 93.543 35.4633 92.0783 35.6241 90.8372L35.6901 90.3321C35.8428 89.1618 36.0009 87.9512 36.1863 86.7952 36.3085 86.0448 36.4212 85.4495 36.5407 84.9257 36.686 84.2863 36.8382 83.7684 37.006 83.3415 37.2078 82.8247 37.405 82.5371 37.5353 82.3862 37.5379 82.3829 37.5406 82.3801 37.5432 82.3768 37.677 82.2199 37.8334 82.1065 38.0211 82.0309 38.2363 81.9433 38.4936 81.8949 38.8154 81.88 38.8187 81.8799 38.8218 81.8797 38.8249 81.8795 38.888 81.876 38.9536 81.8745 39.0199 81.8745 39.119 81.8745 39.2193 81.8784 39.3184 81.8856 39.504 81.8997 39.6231 81.9232 39.6896 81.9405 39.871 81.9865 40.0013 82.0524 40.0965 82.1449 40.1827 82.2281 40.3474 82.4275 40.5255 82.8706 40.6819 83.2564 40.8197 83.7436 40.9486 84.3652 41.0564 84.8906 41.1531 85.492 41.2428 86.2005 41.3979 87.4283 41.5027 88.6898 41.6122 90.206 41.707 91.5346 41.7868 92.8663 41.8739 94.3443L41.909 94.9481C42.0573 97.4942 42.2106 100.127 42.3859 102.721L42.5315 104.816C42.5517 105.104 42.573 105.393 42.5944 105.68 42.6245 106.085 42.6543 106.488 42.68 106.885 42.7655 108.21 42.8313 109.538 42.9024 111.013L42.9531 112.072C43.0682 114.484 43.1871 116.977 43.3769 119.458 43.4852 120.832 43.6168 122.31 43.8459 123.832 43.9103 124.254 43.9761 124.633 44.0481 124.994 44.1426 125.466 44.2374 125.863 44.3471 126.244 44.3486 126.249 44.3502 126.255 44.3517 126.26 44.4827 126.7 44.6494 127.217 44.9701 127.793 44.9751 127.802 44.9804 127.811 44.9856 127.82 45.1541 128.111 45.4324 128.541 45.9005 128.922 45.9065 128.926 45.9124 128.932 45.9185 128.936 46.0534 129.043 46.1956 129.139 46.3415 129.22 46.3634 129.232 46.3857 129.245 46.4081 129.256L46.4215 129.262C46.547 129.327 46.6891 129.395 46.9199 129.465 47.1984 129.552 47.4748 129.571 47.6665 129.571 47.9026 129.571 48.1259 129.54 48.3325 129.479 48.6585 129.389 48.9647 129.236 49.2435 129.025 49.2487 129.021 49.2538 129.017 49.259 129.013 49.6429 128.715 49.8708 128.399 50.0264 128.157 50.0327 128.147 50.0388 128.138 50.0448 128.128 50.1558 127.948 50.2507 127.766 50.3431 127.557 50.4831 127.237 50.5712 126.965 50.6394 126.741 50.7838 126.257 50.8781 125.826 50.9518 125.468 51.1203 124.633 51.2387 123.829 51.3229 123.221 51.5375 121.651 51.6908 120.107 51.8005 118.936 52.081 115.904 52.2804 112.972 52.4384 110.503 52.5954 108.038 52.7483 105.371 52.9199 102.109 53.0684 99.2433 53.2061 96.3998 53.3344 93.7323L53.3963 92.4458C53.5077 90.1292 53.6229 87.7332 53.745 85.3841L53.772 84.873 53.8016 84.3589 53.8618 83.3152 53.9833 81.2289 54.2322 77.0588C54.429 73.7867 54.5957 71.1411 54.7563 68.7341 54.9737 65.4827 55.1664 62.8506 55.3626 60.4511 55.4856 58.9468 55.6043 57.6044 55.726 56.3468 55.8767 54.7889 56.0164 53.5044 56.1654 52.3043 56.2455 51.65 56.3349 50.9862 56.4312 50.3278 56.5275 49.6655 56.6326 49.0228 56.7434 48.4157 56.8671 47.7394 56.9904 47.1544 57.12 46.6279 57.1799 46.3811 57.2477 46.13 57.3339 45.8343 57.3506 45.7821 57.367 45.729 57.3833 45.6761 57.405 45.6051 57.4254 45.538 57.4412 45.4941 57.4447 45.4851 57.4477 45.4761 57.4508 45.4671L57.5124 45.287 57.5771 45.1146C57.7724 44.5989 57.9347 44.3708 57.9794 44.3135 58.0075 44.2775 58.0246 44.2606 58.0308 44.2547 58.0325 44.2543 58.0374 44.2521 58.045 44.2493 58.0718 44.2392 58.2234 44.1896 58.6384 44.1843L58.786 44.1839 58.936 44.1863C59.019 44.1885 59.0944 44.1924 59.1602 44.1977 59.2256 44.203 59.2745 44.2093 59.309 44.215 59.3769 44.3159 59.5026 44.5491 59.6454 44.9363 59.7957 45.3458 59.944 45.8556 60.085 46.4498 60.2116 46.9819 60.3314 47.5696 60.4515 48.2474 60.6516 49.3828 60.8304 50.6206 61.0135 52.1413 61.1592 53.3533 61.2989 54.6758 61.4404 56.1843 61.6666 58.5978 61.8763 61.2142 62.1 64.4179 62.5047 70.2558 62.8245 76.104 63.084 81.0547 63.2183 83.6326 63.3554 86.3627 63.5023 89.4005L63.9009 97.7572 63.9976 99.8446 64.0886 101.921C64.1385 103.127 64.1895 104.45 64.2485 106.08L64.5416 114.446C64.6302 116.959 64.7379 119.921 64.8638 122.849 65.0119 126.242 65.1501 128.849 65.3118 131.303 65.4201 132.935 65.5261 134.293 65.645 135.58 65.7669 136.877 65.9249 138.412 66.1754 139.987 66.2451 140.419 66.3144 140.804 66.3881 141.169 66.4871 141.656 66.5844 142.065 66.6943 142.457 66.7731 142.735 66.8485 142.972 66.9332 143.206 67.0243 143.456 67.1506 143.78 67.3449 144.147 67.3467 144.15 67.3485 144.153 67.35 144.156 67.429 144.303 67.5549 144.526 67.7376 144.775 67.9626 145.081 68.2052 145.335 68.4803 145.554 68.9258 145.908 69.4417 146.14 69.9732 146.227 69.9901 146.23 70.0072 146.232 70.0239 146.234 70.1888 146.256 70.3372 146.267 70.4777 146.267 70.5434 146.267 70.5934 146.265 70.6342 146.263 70.6377 146.263 70.648 146.262 70.6515 146.262 70.9386 146.246 71.21 146.193 71.482 146.103 71.8766 145.969 72.244 145.763 72.5794 145.488 72.8073 145.302 73.0113 145.092 73.2177 144.83 73.221 144.826 73.224 144.822 73.2273 144.818 73.541 144.413 73.7338 144.042 73.8667 143.765 73.8685 143.761 73.8703 143.757 73.872 143.753 74.1372 143.189 74.2962 142.691 74.4281 142.236 74.4294 142.232 74.4309 142.227 74.432 142.223 74.6819 141.338 74.8346 140.531 74.9626 139.792 75.232 138.189 75.3981 136.658 75.5255 135.37 75.6517 134.074 75.7628 132.713 75.8749 131.083 76.0779 128.123 76.2207 125.146 76.3336 122.625 76.4141 120.817 76.4882 118.984 76.5598 117.211 76.5999 116.221 76.6398 115.233 76.6808 114.245L76.7708 112.164 76.7943 111.649 76.8 111.527 76.8052 111.428 76.8197 111.174 76.8794 110.131 77.1222 105.959C77.394 101.364 77.7616 95.3199 78.1981 89.3228 78.4344 86.0988 78.6495 83.4797 78.8744 81.0811 79.0146 79.5919 79.1523 78.2632 79.2955 77.0195 79.4734 75.4832 79.6406 74.2258 79.8222 73.0631 80.0576 71.564 80.2866 70.4056 80.543 69.4191 80.6937 68.8447 80.849 68.3559 81.0036 67.9708 81.2015 67.4759 81.3533 67.269 81.395 67.2171 81.4119 67.1964 81.4241 67.1831 81.4314 67.1758 81.4327 67.1754 81.434 67.1749 81.4353 67.1743 81.4498 67.169 81.5959 67.1192 82.0039 67.1173 82.1827 67.1173 82.3061 67.1232 82.4393 67.1385 82.5622 67.1526 82.6446 67.173 82.6916 67.1875 82.7824 67.2155 82.8181 67.241 82.8644 67.2875 82.9182 67.3414 83.0539 67.4992 83.2399 67.8887 83.3977 68.2222 83.5595 68.6641 83.7183 69.1972 83.9965 70.152 84.2391 71.2777 84.4815 72.7389 84.6704 73.8848 84.8484 75.1702 85.0246 76.6672 85.17 77.9044 85.3089 79.231 85.4491 80.7215 85.6734 83.0996 85.8818 85.6423 86.1262 88.9662 86.2218 90.2713 86.3175 91.6291 86.4192 93.1172L86.5603 95.1984 86.6298 96.2384 86.706 97.2992C86.8446 99.2659 86.9731 101.284 87.0975 103.235 87.148 104.029 87.199 104.825 87.2506 105.62 87.4517 108.73 87.6286 111.347 87.8382 114.017 87.963 115.599 88.083 116.983 88.2057 118.248 88.3191 119.412 88.4777 120.951 88.701 122.548 88.7872 123.157 88.9071 123.96 89.0754 124.805 89.1741 125.294 89.2636 125.679 89.3667 126.055 89.4413 126.327 89.513 126.558 89.5933 126.786 89.6543 126.957 89.7054 127.089 89.7618 127.221 89.837 127.4 89.9239 127.58 90.0204 127.755 90.1772 128.038 90.3382 128.271 90.5301 128.494 90.6887 128.677 90.8521 128.832 91.0323 128.972 91.2847 129.168 91.5758 129.328 91.8746 129.436 91.8807 129.438 91.8869 129.44 91.8934 129.442 92.1974 129.548 92.5127 129.601 92.831 129.601 92.9108 129.601 92.9908 129.598 93.0702 129.591L93.07 129.59C93.2422 129.576 93.5309 129.536 93.8178 129.429 94.219 129.287 94.5904 129.062 94.9233 128.758 94.9269 128.755 94.9302 128.751 94.9339 128.748 95.4062 128.309 95.6764 127.848 95.8591 127.495 95.8629 127.488 95.8666 127.481 95.8703 127.473 96.0528 127.109 96.1693 126.786 96.2415 126.575 96.4211 126.041 96.5303 125.569 96.6139 125.177 96.6937 124.798 96.7648 124.401 96.8335 123.957 96.9372 123.283 97.0237 122.586 97.1142 121.696 97.1805 121.036 97.2421 120.324 97.3023 119.518 97.4106 118.073 97.4937 116.62 97.5674 115.266 97.5926 114.803 97.6172 114.342 97.6414 113.88 97.6898 112.967 97.7396 112.024 97.794 111.105 97.8429 110.283 97.8842 109.659 97.9285 109.085L97.9689 108.587 98.0129 108.072 98.1009 107.032C98.326 104.412 98.5767 101.602 98.8836 98.8156 99.0568 97.259 99.2178 95.9875 99.3907 94.8168 99.6118 93.3188 99.8307 92.1143 100.079 91.027 100.388 89.6916 100.716 88.6648 101.08 87.8937 101.273 87.4897 101.469 87.1629 101.661 86.9301 101.839 86.7123 102.018 86.5509 102.201 86.4447 102.529 86.2519 102.97 86.156 103.516 86.156 103.602 86.156 103.691 86.1584 103.781 86.1631 103.79 86.1635 103.799 86.1641 103.808 86.1643 103.82 86.1646 103.832 86.165 103.845 86.1663 103.851 86.167 103.864 86.1683 103.871 86.1692L104.005 86.1817 104.038 86.1861C104.094 86.1937 104.158 86.2021 104.187 86.208 104.196 86.2098 104.205 86.2115 104.214 86.213 104.368 86.2416 104.492 86.2727 104.593 86.3083 104.597 86.3098 104.601 86.3111 104.605 86.3124 104.852 86.3967 105.062 86.5099 105.249 86.6583 105.473 86.8334 105.681 87.062 105.874 87.3427 106.083 87.6452 106.287 88.0299 106.479 88.4845 106.834 89.3285 107.143 90.4007 107.424 91.7579 107.644 92.8338 107.845 94.06 108.053 95.6159 108.225 96.9015 108.371 98.1663 108.545 99.686 108.631 100.42 108.712 101.17 108.791 101.895 108.86 102.538 108.93 103.182 109.004 103.828 109.137 104.991 109.32 106.525 109.553 108.067 109.748 109.35 110.002 110.869 110.4 112.421 110.567 113.063 110.803 113.899 111.161 114.748 111.366 115.234 111.585 115.655 111.83 116.034 112.224 116.638 112.656 117.09 113.156 117.423 113.162 117.428 113.17 117.432 113.175 117.436 113.561 117.691 114.007 117.826 114.465 117.826 114.585 117.826 114.706 117.817 114.823 117.798 114.827 117.798 114.831 117.797 114.835 117.797 115.074 117.757 115.309 117.695 115.535 117.61 115.542 117.607 115.549 117.605 115.556 117.602 115.77 117.518 115.981 117.412 116.184 117.287 116.191 117.283 116.199 117.278 116.206 117.273 116.385 117.16 116.56 117.029 116.726 116.884 116.734 116.877 116.741 116.871 116.748 116.864 116.894 116.733 117.034 116.592 117.165 116.444 117.168 116.44 117.171 116.437 117.174 116.433 117.579 115.967 117.916 115.427 118.235 114.735 118.449 114.267 118.636 113.771 118.824 113.172 118.966 112.718 119.099 112.236 119.23 111.694 119.46 110.747 119.64 109.815 119.815 108.914 119.886 108.559 119.955 108.2 120.023 107.843 120.125 107.306 120.221 106.799 120.328 106.3 120.526 105.365 120.715 104.642 120.922 104.021 121.152 103.332 121.414 102.756 121.702 102.306 121.973 101.882 122.284 101.543 122.629 101.294 122.952 101.062 123.332 100.887 123.76 100.775 124.176 100.665 124.652 100.608 125.173 100.605L125.414 100.607 125.487 100.607C125.491 100.607 125.495 100.607 125.498 100.607 125.504 100.607 125.51 100.607 125.517 100.607 125.533 100.607 125.549 100.607 125.565 100.608 125.64 100.612 125.709 100.614 125.777 100.617 125.859 100.62 125.93 100.622 125.983 100.628 126.044 100.633 126.102 100.637 126.161 100.642 126.246 100.648 126.325 100.654 126.38 100.661 126.391 100.663 126.402 100.665 126.414 100.666L126.654 100.694C126.673 100.696 126.698 100.701 126.722 100.705 126.76 100.711 126.797 100.717 126.834 100.723 127.085 100.76 127.344 100.822 127.568 100.88 127.859 100.965 128.072 101.038 128.257 101.116 128.494 101.218 128.708 101.326 128.91 101.446 129.121 101.575 129.322 101.719 129.509 101.876 129.896 102.199 130.277 102.626 130.644 103.149 130.85 103.442 131.056 103.77 131.231 104.053L131.389 104.311 131.469 104.442 131.482 104.464 131.507 104.507 131.671 104.792C131.675 104.799 131.679 104.806 131.683 104.812 131.743 104.915 131.802 105.013 131.862 105.111 132.103 105.504 132.4 105.962 132.781 106.406 132.783 106.409 132.786 106.412 132.788 106.415 133.036 106.699 133.281 106.932 133.539 107.128 133.883 107.39 134.258 107.588 134.653 107.715 134.989 107.824 135.353 107.886 135.732 107.897 135.771 107.898 135.81 107.899 135.848 107.899L135.867 107.899 135.941 107.899C135.96 107.899 135.979 107.898 135.998 107.898L136.123 107.894 136.371 107.886C136.39 107.885 136.409 107.884 136.428 107.883 136.923 107.851 137.335 107.799 137.725 107.719 137.731 107.717 137.736 107.716 137.741 107.715 138.253 107.605 138.737 107.441 139.181 107.229 139.605 107.028 140.028 106.765 140.469 106.427 140.765 106.202 141.031 105.975 141.288 105.757L141.412 105.651 141.499 105.578C141.745 105.368 141.977 105.171 142.202 104.995 142.681 104.616 143.155 104.314 143.618 104.092 144.074 103.874 144.57 103.706 145.09 103.594 145.587 103.488 146.111 103.429 146.693 103.414 146.795 103.412 146.896 103.411 146.997 103.411 147.503 103.411 147.97 103.435 148.425 103.483 149.57 103.6 150.657 103.904 151.661 104.388 151.67 104.392 151.678 104.396 151.687 104.4 151.749 104.428 151.811 104.459 151.873 104.49 151.874 104.49 151.882 104.494 151.882 104.494L152.003 104.554C152.016 104.559 152.029 104.566 152.042 104.572L152.16 104.627C152.333 104.708 152.51 104.787 152.679 104.86 153.079 105.034 153.482 105.18 153.878 105.295 154.253 105.406 154.653 105.494 155.093 105.564 155.257 105.592 155.407 105.61 155.541 105.625 155.582 105.63 155.623 105.636 155.665 105.64 155.694 105.644 155.723 105.647 155.752 105.65 155.8 105.654 155.848 105.658 155.896 105.662 156.017 105.673 156.154 105.686 156.305 105.692 156.601 105.71 156.91 105.719 157.273 105.719 157.554 105.719 157.83 105.714 158.097 105.709 158.208 105.706 158.318 105.705 158.429 105.703L160.428 105.668 168.409 105.515C169.409 105.496 170.211 104.679 170.211 103.677 170.21 102.677 169.409 101.859 168.407 101.84Z" fill="#F8C144" transform="matrix(1.00017 0 0 1 1036.61 68.2251)"/><path d="M26.1919 91.1765C18.5113 91.1765 12.5409 89.3764 8.28059 85.7761 4.02029 82.1758 1.68012 77.1655 1.26009 70.745L15.2111 70.745C15.3911 73.4452 16.3662 75.6804 18.1363 77.4505 19.9064 79.2206 22.7116 80.1057 26.5519 80.1057 29.9721 80.1057 32.5973 79.4906 34.4274 78.2606 36.2576 77.0305 37.1726 75.4254 37.1726 73.4452 37.1726 72.5452 36.9176 71.7201 36.4076 70.97 35.8975 70.22 35.3275 69.6199 34.6975 69.1699 34.0674 68.7199 33.0473 68.2698 31.6372 67.8198 30.2271 67.3698 29.1021 67.0398 28.262 66.8297 27.4219 66.6197 26.0418 66.3047 24.1217 65.8847 22.2616 65.4046 20.8215 65.0446 19.8014 64.8046 18.7813 64.5646 17.3712 64.1296 15.5711 63.4995 13.771 62.8695 12.3609 62.2544 11.3408 61.6544 10.3207 61.0543 9.16565 60.2443 7.87556 59.2242 6.58547 58.2041 5.5954 57.1091 4.90535 55.939 4.2153 54.7689 3.61526 53.3288 3.10522 51.6187 2.59518 49.9085 2.34017 48.0334 2.34017 45.9933 2.34017 40.4729 4.39531 35.9576 8.5056 32.4473 12.6159 28.9371 18.2713 27.1819 25.4718 27.1819 32.7923 27.1819 38.5377 29.0121 42.708 32.6723 46.8783 36.3326 49.2035 41.2529 49.6835 47.4334L35.6425 47.4334C35.3425 41.4929 31.8323 38.5227 25.1118 38.5227 22.2916 38.5227 20.0414 39.0778 18.3613 40.1879 16.6812 41.2979 15.8411 42.843 15.8411 44.8232 15.8411 45.8433 16.0961 46.7583 16.6062 47.5684 17.1162 48.3784 17.7013 49.0235 18.3613 49.5035 19.0213 49.9835 20.0264 50.4786 21.3765 50.9886 22.7266 51.4987 23.8817 51.8737 24.8418 52.1137 25.8018 52.3537 27.1819 52.6837 28.9821 53.1038 31.0222 53.5838 32.5073 53.9288 33.4374 54.1388 34.3674 54.3489 35.7925 54.7539 37.7127 55.3539 39.6328 55.954 41.0729 56.524 42.033 57.0641 42.9931 57.6041 44.1481 58.3541 45.4982 59.3142 46.8483 60.2743 47.8684 61.3093 48.5584 62.4194 49.2485 63.5295 49.8485 64.8796 50.3586 66.4697 50.8686 68.0598 51.1236 69.815 51.1236 71.7351 51.1236 77.4955 48.9335 82.1758 44.5532 85.7761 40.1729 89.3764 34.0524 91.1765 26.1919 91.1765ZM79.3856 42.933C86.4661 42.933 92.3766 45.2582 97.1169 49.9085 101.857 54.5589 104.227 60.2743 104.227 67.0548 104.227 73.7752 101.857 79.4606 97.1169 84.111 92.3766 88.7613 86.4661 91.0865 79.3856 91.0865 72.3051 91.0865 66.4097 88.7763 61.6994 84.156 56.989 79.5357 54.6339 73.8352 54.6339 67.0548 54.6339 60.3343 57.004 54.6339 61.7444 49.9535 66.4847 45.2732 72.3651 42.933 79.3856 42.933ZM79.3856 54.2739C75.8454 54.2739 72.8902 55.4889 70.52 57.9191 68.1498 60.3493 66.9648 63.3945 66.9648 67.0548 66.9648 70.775 68.1198 73.8502 70.43 76.2804 72.7402 78.7106 75.6354 79.9257 79.1156 79.9257 82.6559 79.9257 85.6561 78.6956 88.1163 76.2354 90.5764 73.7752 91.8065 70.715 91.8065 67.0548 91.8065 63.3945 90.6214 60.3493 88.2513 57.9191 85.8811 55.4889 82.9259 54.2739 79.3856 54.2739ZM151.841 90.0064 139.51 90.0064 139.51 85.4161C136.09 89.0163 131.619 90.8165 126.099 90.8165 120.699 90.8165 116.378 89.1063 113.138 85.6861 109.898 82.2658 108.278 77.7655 108.278 72.1851L108.278 43.8331 120.699 43.8331 120.699 70.025C120.699 72.7852 121.464 75.0203 122.994 76.7304 124.524 78.4406 126.609 79.2956 129.249 79.2956 132.309 79.2956 134.77 78.3806 136.63 76.5504 138.49 74.7203 139.42 72.2151 139.42 69.0349L139.42 43.8331 151.841 43.8331 151.841 90.0064ZM169.212 43.8331 169.212 48.5134C170.472 47.0133 172.287 45.7232 174.657 44.6432 177.028 43.5631 179.683 43.0231 182.623 43.0231 188.023 43.0231 192.344 44.7332 195.584 48.1534 198.824 51.5737 200.444 56.074 200.444 61.6544L200.444 90.0064 188.023 90.0064 188.023 63.8145C188.023 61.0543 187.273 58.8192 185.773 57.1091 184.273 55.3989 182.203 54.5439 179.563 54.5439 176.503 54.5439 174.042 55.4589 172.182 57.2891 170.322 59.1192 169.392 61.6244 169.392 64.8046L169.392 90.0064 156.881 90.0064 156.881 43.8331 169.212 43.8331ZM229.066 79.5657C232.667 79.5657 235.667 78.3656 238.067 75.9654 240.467 73.5652 241.667 70.625 241.667 67.1448 241.667 63.7245 240.437 60.7993 237.977 58.3691 235.517 55.939 232.547 54.7239 229.066 54.7239 225.646 54.7239 222.766 55.939 220.426 58.3691 218.085 60.7993 216.915 63.7245 216.915 67.1448 216.915 70.625 218.085 73.5652 220.426 75.9654 222.766 78.3656 225.646 79.5657 229.066 79.5657ZM241.487 90.0064 241.487 86.5861C238.007 89.2863 233.507 90.6364 227.986 90.6364 221.626 90.6364 216.15 88.3713 211.56 83.841 206.97 79.3106 204.675 73.7452 204.675 67.1448 204.675 60.5443 206.97 54.9339 211.56 50.3136 216.15 45.6932 221.626 43.3831 227.986 43.3831 233.447 43.3831 237.947 44.7632 241.487 47.5234L241.487 28.352 253.998 28.352 253.998 90.0064 241.487 90.0064ZM258.318 75.5154 271.009 75.5154C271.009 77.1955 271.684 78.6506 273.034 79.8807 274.384 81.1108 276.56 81.7558 279.56 81.8158 281.78 81.8158 283.475 81.3958 284.645 80.5557 285.815 79.7157 286.4 78.6956 286.4 77.4955 286.4 76.2354 285.725 75.2603 284.375 74.5703 283.025 73.8802 281.345 73.4302 279.335 73.2202 277.325 73.0102 275.135 72.6352 272.764 72.0951 270.394 71.5551 268.204 70.88 266.194 70.07 264.184 69.2599 262.504 67.8498 261.154 65.8397 259.803 63.8295 259.128 61.2943 259.128 58.2341 259.128 53.9738 260.869 50.4186 264.349 47.5684 267.829 44.7182 272.449 43.2931 278.21 43.2931 284.03 43.2931 288.695 44.6732 292.206 47.4334 295.716 50.1936 297.651 53.9138 298.011 58.5942L285.5 58.5942C285.38 56.734 284.81 55.2939 283.79 54.2739 282.77 53.2538 280.97 52.7437 278.39 52.7437 274.009 52.7437 271.819 54.0938 271.819 56.794 271.819 58.2941 272.779 59.4192 274.699 60.1693 276.62 60.9193 278.945 61.5044 281.675 61.9244 284.405 62.3444 287.135 62.8995 289.866 63.5895 292.596 64.2796 294.921 65.5997 296.841 67.5498 298.761 69.4999 299.721 72.0951 299.721 75.3354 299.721 80.5557 297.801 84.456 293.961 87.0362 290.121 89.6164 285.11 90.9065 278.93 90.9065 272.749 90.9065 267.799 89.4663 264.079 86.5861 260.358 83.7059 258.438 80.0157 258.318 75.5154ZM339.144 73.0852 348.865 79.2956C344.004 87.1562 336.834 91.0865 327.353 91.0865 320.273 91.0865 314.437 88.7763 309.847 84.156 305.257 79.5357 302.962 73.8352 302.962 67.0548 302.962 60.2743 305.257 54.5589 309.847 49.9085 314.437 45.2582 320.273 42.933 327.353 42.933 336.954 42.933 344.154 46.9533 348.955 54.9939L339.144 61.1143C336.444 56.614 332.664 54.3639 327.803 54.3639 324.143 54.3639 321.188 55.5339 318.938 57.8741 316.688 60.2143 315.562 63.2745 315.562 67.0548 315.562 70.835 316.688 73.9102 318.938 76.2804 321.188 78.6506 324.143 79.8357 327.803 79.8357 332.664 79.8357 336.444 77.5855 339.144 73.0852ZM376.227 54.7239C372.806 54.7239 369.926 55.939 367.586 58.3691 365.246 60.7993 364.076 63.7245 364.076 67.1448 364.076 70.625 365.246 73.5652 367.586 75.9654 369.926 78.3656 372.806 79.5657 376.227 79.5657 379.827 79.5657 382.827 78.3656 385.227 75.9654 387.628 73.5652 388.828 70.625 388.828 67.1448 388.828 63.7245 387.598 60.7993 385.137 58.3691 382.677 55.939 379.707 54.7239 376.227 54.7239ZM388.648 90.0064 388.648 86.5861C385.167 89.2863 380.667 90.6364 375.147 90.6364 368.786 90.6364 363.311 88.3713 358.72 83.841 354.13 79.3106 351.835 73.7452 351.835 67.1448 351.835 60.5443 354.13 54.9339 358.72 50.3136 363.311 45.6932 368.786 43.3831 375.147 43.3831 380.607 43.3831 385.107 44.7632 388.648 47.5234L388.648 43.8331 401.158 43.8331 401.158 90.0064 388.648 90.0064ZM431.131 54.7239C427.53 54.7239 424.53 55.924 422.13 58.3241 419.73 60.7243 418.53 63.6645 418.53 67.1448 418.53 70.565 419.76 73.4902 422.22 75.9204 424.68 78.3506 427.65 79.5657 431.131 79.5657 434.551 79.5657 437.431 78.3506 439.771 75.9204 442.111 73.4902 443.281 70.565 443.281 67.1448 443.281 63.6645 442.111 60.7243 439.771 58.3241 437.431 55.924 434.551 54.7239 431.131 54.7239ZM432.211 90.6364C426.75 90.6364 422.25 89.2563 418.71 86.4961L418.71 105.848 406.199 105.848 406.199 43.8331 418.71 43.8331 418.71 47.4334C422.19 44.7332 426.69 43.3831 432.211 43.3831 438.571 43.3831 444.047 45.6482 448.637 50.1786 453.227 54.7089 455.522 60.2743 455.522 66.8747 455.522 73.4752 453.227 79.0856 448.637 83.7059 444.047 88.3263 438.571 90.6364 432.211 90.6364ZM505.116 80.1057C500.255 87.4262 492.965 91.0865 483.244 91.0865 475.984 91.0865 470.118 88.8213 465.648 84.291 461.178 79.7607 458.943 74.0153 458.943 67.0548 458.943 60.2743 461.223 54.5589 465.783 49.9085 470.343 45.2582 476.194 42.933 483.334 42.933 490.475 42.933 496.16 45.1382 500.391 49.5485 504.621 53.9588 506.736 59.5842 506.736 66.4247 506.736 66.9648 506.721 67.5798 506.691 68.2698 506.661 68.9599 506.631 69.5449 506.601 70.025 506.571 70.505 506.556 70.775 506.556 70.835L471.273 70.835C471.934 73.8352 473.344 76.1904 475.504 77.9005 477.664 79.6107 480.334 80.4657 483.514 80.4657 488.795 80.4657 492.875 78.4256 495.755 74.3453ZM483.244 53.1938C477.304 53.1938 473.464 55.984 471.723 61.5644L494.135 61.5644C493.475 58.8642 492.155 56.794 490.175 55.3539 488.195 53.9138 485.884 53.1938 483.244 53.1938ZM564.7 67.0548 556.69 42.933 548.679 67.0548 564.7 67.0548ZM572.351 90.0064 568.84 79.3856 544.629 79.3856 541.118 90.0064 526.807 90.0064 548.589 28.352 565.69 28.352 587.382 90.0064 572.351 90.0064ZM602.773 43.8331 602.773 48.5134C604.033 47.0133 605.848 45.7232 608.218 44.6432 610.588 43.5631 613.244 43.0231 616.184 43.0231 621.584 43.0231 625.904 44.7332 629.145 48.1534 632.385 51.5737 634.005 56.074 634.005 61.6544L634.005 90.0064 621.584 90.0064 621.584 63.8145C621.584 61.0543 620.834 58.8192 619.334 57.1091 617.834 55.3989 615.764 54.5439 613.124 54.5439 610.063 54.5439 607.603 55.4589 605.743 57.2891 603.883 59.1192 602.953 61.6244 602.953 64.8046L602.953 90.0064 590.442 90.0064 590.442 43.8331 602.773 43.8331ZM662.627 54.7239C659.207 54.7239 656.327 55.939 653.986 58.3691 651.646 60.7993 650.476 63.7245 650.476 67.1448 650.476 70.625 651.646 73.5652 653.986 75.9654 656.327 78.3656 659.207 79.5657 662.627 79.5657 666.227 79.5657 669.227 78.3656 671.628 75.9654 674.028 73.5652 675.228 70.625 675.228 67.1448 675.228 63.7245 673.998 60.7993 671.538 58.3691 669.078 55.939 666.107 54.7239 662.627 54.7239ZM675.048 90.0064 675.048 86.5861C671.568 89.2863 667.067 90.6364 661.547 90.6364 655.187 90.6364 649.711 88.3713 645.121 83.841 640.53 79.3106 638.235 73.7452 638.235 67.1448 638.235 60.5443 640.53 54.9339 645.121 50.3136 649.711 45.6932 655.187 43.3831 661.547 43.3831 667.007 43.3831 671.508 44.7632 675.048 47.5234L675.048 43.8331 687.559 43.8331 687.559 90.0064 675.048 90.0064ZM705.2 90.0064 692.599 90.0064 692.599 28.352 705.2 28.352 705.2 90.0064ZM754.614 43.8331 739.133 88.3863C736.912 94.6867 734.212 99.187 731.032 101.887 727.852 104.587 723.471 105.938 717.891 105.938L713.391 105.938 713.391 94.6867 717.171 94.6867C721.011 94.6867 723.861 92.7066 725.721 88.7463L708.53 43.8331 722.841 43.8331 732.292 72.2751 741.653 43.8331 754.614 43.8331ZM776.395 43.8331 787.736 43.8331 787.736 54.9939 776.395 54.9939 776.395 73.5352C776.395 75.5754 776.875 77.0455 777.835 77.9455 778.795 78.8456 780.355 79.2956 782.516 79.2956L787.736 79.2956 787.736 90.0064 781.615 90.0064C769.795 90.0064 763.884 84.726 763.884 74.1653L763.884 54.9939 757.224 54.9939 757.224 43.8331 763.884 43.8331 763.884 31.9523 776.395 31.9523 776.395 43.8331ZM804.927 39.8728 792.416 39.8728 792.416 28.352 804.927 28.352 804.927 39.8728ZM804.927 90.0064 792.416 90.0064 792.416 43.8331 804.927 43.8331 804.927 90.0064ZM845.34 73.0852 855.061 79.2956C850.2 87.1562 843.03 91.0865 833.549 91.0865 826.469 91.0865 820.633 88.7763 816.043 84.156 811.453 79.5357 809.157 73.8352 809.157 67.0548 809.157 60.2743 811.453 54.5589 816.043 49.9085 820.633 45.2582 826.469 42.933 833.549 42.933 843.15 42.933 850.35 46.9533 855.151 54.9939L845.34 61.1143C842.64 56.614 838.859 54.3639 833.999 54.3639 830.339 54.3639 827.384 55.5339 825.134 57.8741 822.883 60.2143 821.758 63.2745 821.758 67.0548 821.758 70.835 822.883 73.9102 825.134 76.2804 827.384 78.6506 830.339 79.8357 833.999 79.8357 838.86 79.8357 842.64 77.5855 845.34 73.0852ZM858.121 75.5154 870.812 75.5154C870.812 77.1955 871.487 78.6506 872.837 79.8807 874.187 81.1108 876.362 81.7558 879.362 81.8158 881.583 81.8158 883.278 81.3958 884.448 80.5557 885.618 79.7157 886.203 78.6956 886.203 77.4955 886.203 76.2354 885.528 75.2603 884.178 74.5703 882.828 73.8802 881.148 73.4302 879.137 73.2202 877.127 73.0102 874.937 72.6352 872.567 72.0951 870.197 71.5551 868.007 70.88 865.996 70.07 863.986 69.2599 862.306 67.8498 860.956 65.8397 859.606 63.8295 858.931 61.2943 858.931 58.2341 858.931 53.9738 860.671 50.4186 864.151 47.5684 867.632 44.7182 872.252 43.2931 878.012 43.2931 883.833 43.2931 888.498 44.6732 892.008 47.4334 895.519 50.1936 897.454 53.9138 897.814 58.5942L885.303 58.5942C885.183 56.734 884.613 55.2939 883.593 54.2739 882.573 53.2538 880.773 52.7437 878.192 52.7437 873.812 52.7437 871.622 54.0938 871.622 56.794 871.622 58.2941 872.582 59.4192 874.502 60.1693 876.422 60.9193 878.747 61.5044 881.478 61.9244 884.208 62.3444 886.938 62.8995 889.668 63.5895 892.398 64.2796 894.724 65.5997 896.644 67.5498 898.564 69.4999 899.524 72.0951 899.524 75.3354 899.524 80.5557 897.604 84.456 893.763 87.0362 889.923 89.6164 884.913 90.9065 878.732 90.9065 872.552 90.9065 867.602 89.4663 863.881 86.5861 860.161 83.7059 858.241 80.0157 858.121 75.5154Z" fill="#A8A8A8" transform="matrix(1.00017 0 0 1 73.8901 93.5583)"/></g></svg>