<svg xmlns="http://www.w3.org/2000/svg" xmlns:xlink="http://www.w3.org/1999/xlink" width="400" height="400" viewBox="0 0 400 400">
<rect data-name="background" width="100%" height="100%" fill="none"/><g data-name="icon" fill="#f8c144" data="id:3975062" transform="translate(329.0734971551586,170.01363709734736) scale(0.05997241466912079)">
    <path d="M916.329,554.127l-43.405-0.835l-10.87-0.188c-0.607-0.013-1.239-0.021-1.87-0.032c-2.867-0.046-5.576-0.091-8.138-0.339  c-0.079-0.009-0.158-0.016-0.237-0.021c-0.321-0.023-0.762-0.079-1.228-0.138c-0.271-0.034-0.54-0.068-0.812-0.102  c-0.212-0.032-0.424-0.064-0.636-0.098c-0.503-0.077-0.979-0.15-1.328-0.224c-0.059-0.014-0.116-0.024-0.176-0.035  c-1.495-0.287-2.801-0.618-3.99-1.013c-0.021-0.007-0.043-0.014-0.063-0.021c-2.714-0.877-5.625-2.358-8.617-3.929  c-0.026-0.015-0.052-0.027-0.078-0.041c-4.006-2.058-8.092-3.733-12.146-4.983c-3.888-1.221-7.964-2.117-12.462-2.743  c-3.834-0.528-7.941-0.826-12.218-0.881c-0.255-0.002-0.465-0.003-0.674-0.003c-4.29,0-8.435,0.364-12.318,1.085  c-4.577,0.849-8.994,2.212-13.125,4.055c-2.129,0.954-4.242,2.062-6.304,3.297c-1.984,1.199-3.95,2.529-5.873,3.974  c-1.591,1.188-3.094,2.406-4.547,3.585l-0.509,0.412l-0.654,0.53c-1.263,1.023-2.456,1.991-3.558,2.791  c-1.086,0.789-2.014,1.348-2.845,1.715c-0.799,0.354-1.663,0.616-2.669,0.808c-0.956,0.166-2.1,0.271-3.584,0.33l-0.901,0.006  c-0.643-0.815-1.404-1.978-2.323-3.537c-0.24-0.405-0.472-0.813-0.704-1.223l-0.772-1.4l-0.187-0.34  c-0.032-0.058-0.063-0.115-0.097-0.172l-0.161-0.281c-0.016-0.027-0.031-0.056-0.048-0.083l-0.106-0.182l-0.438-0.746l-0.864-1.465  c-1.145-1.932-2.504-4.184-3.989-6.372c-3.208-4.757-6.745-8.833-10.498-12.095c-1.933-1.69-4.035-3.271-6.227-4.673  c-0.021-0.015-0.041-0.026-0.063-0.039c-2.028-1.279-4.227-2.46-6.529-3.509c-1.942-0.881-4.04-1.667-6.61-2.48  c-0.086-0.026-0.172-0.053-0.258-0.077c-1.748-0.503-4.078-1.136-6.59-1.576l-0.338-0.063c-0.438-0.084-0.874-0.164-1.312-0.229  l-1.359-0.197c-0.912-0.146-1.729-0.228-2.453-0.3c-0.243-0.023-0.486-0.049-0.729-0.076c-0.86-0.097-1.651-0.145-2.35-0.187  c-0.279-0.018-0.561-0.033-0.837-0.054c-0.559-0.045-1.077-0.06-1.456-0.069l-0.302-0.009c-0.026-0.001-0.053-0.002-0.077-0.003  l-1.355-0.039l-0.312-0.01c-0.088-0.004-0.178-0.005-0.266-0.006l-0.386-0.002c-0.026,0-0.054,0-0.08,0l-0.688,0.002l-0.126-0.001  c-0.495,0-0.991,0.016-1.488,0.032l-0.06,0.002c-0.628,0.015-1.199,0.047-1.733,0.081c-0.68,0.036-1.313,0.094-1.79,0.142  c-2.397,0.225-4.772,0.612-7.031,1.149c-5.302,1.268-10.171,3.412-14.48,6.38c-4.606,3.157-8.828,7.531-12.191,12.64  c-2.91,4.384-5.464,9.687-7.57,15.729c-1.564,4.484-2.95,9.479-4.358,15.717c-0.697,3.072-1.319,6.126-1.921,9.079  c-0.382,1.867-0.759,3.723-1.15,5.557c-0.005,0.022-0.01,0.047-0.015,0.069l-0.02,0.093c-0.35,1.691-0.69,3.35-1.036,4.977  c-0.418-2.508-0.832-5.231-1.255-8.236c-1.447-10.36-2.478-20.747-3.568-31.744c-0.413-4.163-0.842-8.468-1.289-12.734  c-0.691-6.627-1.554-14.885-2.541-22.872c-1.175-9.463-2.288-16.719-3.615-23.531c-1.221-6.198-3.262-15.45-6.919-24.458  c-1.921-4.677-4.002-8.654-6.378-12.197c-2.76-4.119-5.938-7.646-9.443-10.481c-3.444-2.813-7.376-5.038-11.646-6.583  c-1.855-0.68-3.795-1.218-5.927-1.648c-0.938-0.198-1.778-0.323-2.521-0.433l-0.286-0.043c-0.126-0.02-0.253-0.035-0.38-0.049  l-1.082-0.12c-0.533-0.063-1.086-0.111-1.732-0.148l-0.286-0.018c-0.366-0.024-0.735-0.047-1.067-0.061  c-0.033-0.001-0.067-0.002-0.102-0.003l-1.029-0.027c-0.222-0.007-0.51-0.014-0.75-0.014c-0.094,0-0.184,0.001-0.269,0.002  l-0.514,0.005c-0.026,0-0.053,0.001-0.079,0.001l-0.231,0.003c-0.301,0.002-0.697,0.006-1.16,0.03  c-1.823,0.063-3.755,0.264-5.738,0.592c-4.404,0.732-8.594,2.207-12.453,4.383c-4.004,2.251-7.837,5.503-11.077,9.399  c-2.75,3.279-5.223,7.187-7.53,11.912c-0.911,1.881-1.779,3.881-2.675,6.147c-0.747,1.914-1.455,3.902-2.182,6.123  c-1.202,3.725-2.295,7.659-3.354,12.069c-1.641,6.913-3.067,14.384-4.499,23.54c-1.063,6.81-2.057,14.149-3.128,23.104  c-0.861,7.235-1.645,14.423-2.405,21.92c-0.553-9.414-1.123-19.058-1.746-28.611l-0.375-5.639l-0.348-5.643l-0.722-11.395  c-0.534-8.288-1.032-15.75-1.524-22.827c-1.278-18.385-2.385-32.508-3.584-45.792c-0.768-8.499-1.53-16.05-2.333-23.088  c-1.021-8.965-2.023-16.408-3.152-23.423c-1.083-6.653-2.652-15.419-5.218-24.38c-0.007-0.021-0.013-0.042-0.019-0.063  c-1.495-5.094-3.026-9.256-4.819-13.099c-1.2-2.548-2.435-4.781-3.787-6.862c-1.601-2.464-3.369-4.688-5.256-6.608  c-2.048-2.093-4.316-3.905-6.729-5.372c-2.25-1.373-4.699-2.484-7.263-3.293c-2.15-0.677-4.355-1.146-6.747-1.437  c-2.25-0.277-4.446-0.337-5.89-0.338c-2.153,0-4.116,0.118-6.004,0.362c-2.583,0.335-4.938,0.897-7.21,1.717  c-2.744,0.987-5.349,2.372-7.73,4.112c-2.346,1.702-4.555,3.818-6.543,6.271c-1.659,2.039-3.181,4.328-4.639,6.985  c-1.166,2.135-2.218,4.377-3.23,6.876c-1.539,3.813-2.872,7.907-4.2,12.896c-2.303,8.786-3.759,17.113-4.882,24.104  c-1.118,7.04-2.123,14.444-3.167,23.322c-0.833,7.117-1.629,14.651-2.435,23.037c-1.279,13.37-2.502,27.911-3.846,45.766  c-2.164,28.916-3.97,57.354-6.015,91.163l-1.351,22.76l-0.333,5.692l-0.083,1.429l-0.048,0.898  c-0.001,0.021-0.002,0.042-0.003,0.063l-0.033,0.715l-0.132,2.866l-0.144,3.294l-1.335-36.019  c-0.349-8.938-0.647-16.21-0.943-22.903l-0.534-11.459l-0.559-11.404l-2.293-45.539c-0.882-16.872-1.686-31.775-2.457-45.58  c-1.521-27.071-3.392-59.079-5.742-91.245c-1.358-18.421-2.547-32.556-3.854-45.836c-0.851-8.586-1.689-16.142-2.564-23.106  c-1.146-9.091-2.266-16.552-3.526-23.483c-0.817-4.482-1.652-8.452-2.551-12.143c-1.205-4.931-2.429-9.004-3.854-12.825  c-0.984-2.606-1.979-4.867-3.053-6.949c-1.436-2.777-2.951-5.148-4.637-7.257c-2.035-2.562-4.456-4.83-6.983-6.535  c-2.479-1.688-5.247-2.976-8.193-3.804c-2.175-0.615-4.391-0.989-6.958-1.173c-0.918-0.065-1.851-0.104-2.86-0.119  c-0.028,0-0.059,0-0.088,0l-1.098-0.007c-0.028-0.002-0.052-0.002-0.073-0.002c-0.043,0-0.087,0-0.13,0.001l-1.122,0.015  c-0.032,0-0.063,0.001-0.095,0.002c-2.177,0.05-4.052,0.202-5.901,0.479c-2.553,0.383-4.874,0.986-7.103,1.845  c-2.703,1.037-5.257,2.472-7.579,4.258c-2.291,1.753-4.427,3.913-6.329,6.404c-1.586,2.07-3.024,4.368-4.383,7.011  c-1.292,2.494-2.277,4.959-2.988,6.825c-0.008,0.021-0.016,0.041-0.024,0.062c-1.453,3.89-2.675,7.976-3.844,12.856  c-0.884,3.678-1.703,7.659-2.502,12.167c-0.653,3.673-1.262,7.56-1.863,11.88c-0.544,3.902-1.047,7.838-1.493,11.694  c-0.81,6.902-1.559,14.252-2.356,23.114c-0.636,7.078-1.25,14.587-1.878,22.96c-0.993,13.25-1.959,27.777-3.039,45.715  c-0.866,14.473-1.703,29.392-2.56,45.611l-1.172,22.778l-0.571,11.397l-0.282,5.693l-0.141,2.844l-0.131,2.947  c-0.558,12.718-1.073,25.613-1.571,38.083l-0.301,7.532c-0.584,14.629-1.211,30.188-1.879,45.46  c-0.239,5.551-0.471,10.771-0.698,15.733c-0.048-0.561-0.095-1.121-0.141-1.683l-0.927-11.297  c-1.113-13.903-2.119-28.122-3.092-41.873l-0.236-3.338c-0.578-8.099-1.106-15.404-1.733-22.876  c-0.628-7.401-1.364-15.35-2.489-23.389c-0.66-4.676-1.342-8.552-2.149-12.207c-1.152-5.161-2.411-9.271-3.967-12.957  c-1.038-2.458-2.217-4.713-3.504-6.705c-1.514-2.35-3.247-4.438-5.145-6.198c-1.938-1.804-4.134-3.329-6.515-4.521  c-2.064-1.032-4.307-1.828-6.664-2.363c-1.923-0.438-3.87-0.693-6.126-0.806c-0.74-0.034-1.447-0.05-2.139-0.05  c-1.135,0-2.288,0.044-3.425,0.132c-4.389,0.325-8.282,1.244-11.871,2.807c-2.185,0.947-4.266,2.155-6.175,3.585  c-1.961,1.465-3.808,3.237-5.477,5.263c-2.838,3.435-5.224,7.72-7.082,12.728c-1.362,3.654-2.479,7.636-3.509,12.516  c-0.737,3.491-1.377,7.165-2.073,11.911c-0.981,6.78-1.76,13.565-2.514,20.128l-0.316,2.752c-0.866,7.556-1.722,14.94-2.681,22.303  c-0.503,3.862-1,7.465-1.516,11.013c-0.005,0.031-0.009,0.063-0.013,0.095c-0.435,3.198-1.083,6.206-1.926,8.938  c-0.84,2.694-1.893,5.134-3.123,7.225c-1.187,2.015-2.566,3.781-4.101,5.25c-2.873,2.763-6.393,4.742-10.774,6.07  c-3.92,1.188-8.349,1.821-13.539,1.94l-16.432,0.301l-32.972,0.637c-5.447,0.105-9.807,4.551-9.807,9.998s4.36,9.894,9.807,9.998  l32.961,0.637l16.5,0.295c0.023,0.002,0.047,0.002,0.071,0.002c0.349,0.004,0.698,0.006,1.047,0.006  c6.705,0,12.658-0.72,18.198-2.199c3.595-0.962,6.984-2.258,10.08-3.853c3.56-1.825,6.84-4.102,9.738-6.754  c3.08-2.805,5.832-6.15,8.161-9.93c2.214-3.594,4.082-7.665,5.551-12.102c1.307-3.964,2.319-8.255,3.013-12.767  c0.579-3.555,1.167-7.352,1.748-11.287c1.167-7.903,2.218-15.873,3.093-22.626l0.359-2.748c0.831-6.368,1.691-12.955,2.7-19.245  c0.665-4.083,1.278-7.322,1.928-10.172c0.791-3.479,1.619-6.297,2.532-8.62c1.098-2.812,2.171-4.377,2.88-5.198  c0.014-0.018,0.029-0.033,0.043-0.051c0.728-0.854,1.579-1.471,2.6-1.882c1.171-0.477,2.571-0.74,4.322-0.821  c0.018-0.001,0.035-0.002,0.052-0.003c0.343-0.019,0.7-0.027,1.061-0.027c0.539,0,1.085,0.021,1.624,0.06  c1.01,0.077,1.658,0.205,2.02,0.299c0.987,0.25,1.696,0.609,2.214,1.112c0.469,0.453,1.365,1.538,2.334,3.949  c0.851,2.099,1.601,4.75,2.302,8.132c0.587,2.859,1.113,6.131,1.601,9.986c0.844,6.681,1.414,13.545,2.01,21.795  c0.516,7.229,0.95,14.475,1.424,22.517l0.191,3.285c0.807,13.854,1.641,28.179,2.595,42.296l0.792,11.396  c0.11,1.568,0.226,3.139,0.342,4.702c0.164,2.204,0.326,4.397,0.466,6.558c0.465,7.208,0.823,14.435,1.21,22.457l0.276,5.766  c0.626,13.122,1.273,26.69,2.306,40.187c0.589,7.478,1.305,15.516,2.552,23.799c0.35,2.296,0.708,4.358,1.1,6.323  c0.514,2.568,1.03,4.728,1.627,6.8c0.008,0.029,0.017,0.059,0.025,0.088c0.713,2.394,1.62,5.208,3.365,8.34  c0.027,0.05,0.056,0.1,0.084,0.148c0.917,1.582,2.431,3.926,4.978,5.996c0.033,0.025,0.065,0.053,0.098,0.079  c0.734,0.58,1.508,1.102,2.302,1.546c0.119,0.065,0.24,0.131,0.362,0.192l0.073,0.036c0.683,0.35,1.456,0.72,2.712,1.1  c1.515,0.474,3.019,0.578,4.062,0.578c1.285,0,2.5-0.168,3.624-0.501c1.774-0.489,3.44-1.319,4.957-2.471  c0.028-0.021,0.056-0.043,0.084-0.063c2.089-1.62,3.329-3.342,4.176-4.658c0.034-0.054,0.067-0.104,0.1-0.158  c0.604-0.979,1.12-1.967,1.623-3.107c0.762-1.743,1.241-3.221,1.612-4.438c0.786-2.632,1.299-4.978,1.7-6.93  c0.917-4.539,1.561-8.915,2.019-12.224c1.168-8.542,2.002-16.945,2.599-23.313c1.526-16.501,2.611-32.455,3.471-45.889  c0.854-13.409,1.686-27.921,2.62-45.671c0.808-15.593,1.557-31.065,2.255-45.579l0.337-7c0.606-12.605,1.233-25.642,1.897-38.424  l0.147-2.781l0.161-2.797l0.328-5.679l0.661-11.352l1.354-22.69c1.071-17.804,1.978-32.199,2.852-45.296  c1.183-17.691,2.231-32.013,3.299-45.069c0.669-8.185,1.315-15.489,1.977-22.332c0.82-8.477,1.58-15.466,2.391-21.996  c0.436-3.56,0.922-7.172,1.446-10.754c0.524-3.604,1.096-7.101,1.699-10.404c0.673-3.68,1.344-6.863,2.049-9.728  c0.326-1.343,0.695-2.709,1.164-4.318c0.091-0.284,0.18-0.573,0.269-0.861c0.118-0.386,0.229-0.751,0.315-0.99  c0.019-0.049,0.035-0.098,0.052-0.147l0.335-0.98l0.352-0.938c1.063-2.806,1.946-4.047,2.189-4.359  c0.153-0.196,0.246-0.288,0.28-0.32c0.009-0.002,0.036-0.014,0.077-0.029c0.146-0.055,0.971-0.325,3.229-0.354l0.803-0.002  l0.816,0.013c0.452,0.012,0.862,0.033,1.22,0.062c0.356,0.029,0.622,0.063,0.81,0.094c0.369,0.549,1.053,1.818,1.83,3.925  c0.818,2.228,1.625,5.002,2.392,8.235c0.689,2.895,1.341,6.093,1.994,9.781c1.089,6.178,2.062,12.913,3.058,21.187  c0.793,6.595,1.553,13.791,2.323,21.999c1.231,13.132,2.372,27.368,3.589,44.8c2.202,31.765,3.942,63.586,5.354,90.523  c0.731,14.027,1.477,28.882,2.276,45.411l2.169,45.47l0.526,11.358l0.495,11.298c0.272,6.562,0.549,13.759,0.87,22.629l1.595,45.521  c0.482,13.671,1.068,29.791,1.753,45.722c0.806,18.462,1.558,32.646,2.438,46.001c0.589,8.877,1.166,16.27,1.813,23.27  c0.663,7.055,1.523,15.409,2.886,23.979c0.379,2.352,0.756,4.446,1.157,6.43c0.539,2.654,1.068,4.879,1.666,7.008  c0.429,1.513,0.839,2.802,1.3,4.079c0.496,1.359,1.183,3.124,2.24,5.116c0.01,0.018,0.02,0.035,0.028,0.053  c0.43,0.797,1.115,2.014,2.109,3.367c1.224,1.664,2.544,3.049,4.041,4.237c2.424,1.927,5.231,3.191,8.123,3.662  c0.092,0.016,0.185,0.028,0.276,0.041c0.897,0.12,1.705,0.18,2.469,0.18c0.358,0,0.63-0.013,0.852-0.023  c0.019-0.001,0.075-0.004,0.094-0.005c1.562-0.091,3.039-0.375,4.519-0.869c2.147-0.726,4.146-1.848,5.971-3.344  c1.24-1.012,2.35-2.154,3.473-3.579c0.018-0.021,0.034-0.044,0.052-0.065c1.707-2.204,2.756-4.222,3.479-5.732  c0.01-0.021,0.02-0.04,0.029-0.062c1.443-3.072,2.308-5.782,3.026-8.254c0.007-0.023,0.015-0.049,0.021-0.073  c1.36-4.814,2.191-9.204,2.887-13.23c1.466-8.72,2.37-17.053,3.063-24.061c0.687-7.051,1.291-14.456,1.901-23.321  c1.105-16.107,1.882-32.304,2.496-46.022c0.438-9.842,0.841-19.813,1.231-29.459c0.218-5.386,0.435-10.765,0.658-16.137l0.49-11.324  l0.128-2.805l0.031-0.663l0.028-0.54l0.079-1.381l0.325-5.677l1.321-22.7c1.479-24.998,3.479-57.887,5.854-90.518  c1.286-17.542,2.456-31.793,3.68-44.844c0.763-8.103,1.512-15.333,2.291-22.1c0.968-8.359,1.878-15.201,2.866-21.527  c1.281-8.157,2.527-14.46,3.922-19.828c0.82-3.125,1.665-5.785,2.506-7.88c1.077-2.693,1.903-3.819,2.13-4.101  c0.092-0.113,0.158-0.185,0.198-0.225c0.007-0.002,0.014-0.005,0.021-0.008c0.079-0.029,0.874-0.3,3.094-0.31  c0.973,0,1.644,0.032,2.369,0.115c0.669,0.077,1.117,0.188,1.373,0.267c0.494,0.152,0.688,0.291,0.94,0.544  c0.293,0.293,1.031,1.152,2.043,3.271c0.859,1.815,1.739,4.219,2.603,7.12c1.514,5.195,2.834,11.32,4.153,19.271  c1.028,6.235,1.996,13.229,2.955,21.374c0.791,6.732,1.547,13.95,2.31,22.06c1.22,12.94,2.354,26.775,3.684,44.861  c0.52,7.101,1.041,14.489,1.594,22.586l0.768,11.324l0.378,5.659l0.415,5.772c0.754,10.701,1.453,21.679,2.13,32.295  c0.275,4.325,0.552,8.653,0.833,12.982c1.094,16.917,2.057,31.161,3.197,45.688c0.679,8.608,1.332,16.139,2,23.021  c0.617,6.331,1.48,14.706,2.695,23.396c0.469,3.312,1.121,7.681,2.037,12.28c0.537,2.664,1.024,4.755,1.585,6.805  c0.406,1.477,0.796,2.734,1.233,3.975c0.332,0.929,0.61,1.646,0.917,2.368c0.409,0.974,0.882,1.95,1.407,2.905  c0.853,1.54,1.729,2.808,2.773,4.02c0.863,0.995,1.752,1.84,2.733,2.599c1.373,1.067,2.957,1.94,4.583,2.525  c0.033,0.013,0.067,0.023,0.102,0.036c1.654,0.573,3.37,0.864,5.102,0.864c0.434,0,0.869-0.019,1.301-0.056l-0.001-0.004  c0.937-0.079,2.508-0.294,4.069-0.877c2.183-0.77,4.204-1.996,6.015-3.651c0.02-0.018,0.038-0.035,0.058-0.053  c2.57-2.388,4.04-4.897,5.034-6.817c0.021-0.039,0.041-0.079,0.061-0.119c0.993-1.981,1.627-3.738,2.02-4.889  c0.977-2.907,1.571-5.475,2.026-7.606c0.434-2.061,0.821-4.222,1.195-6.639c0.564-3.667,1.035-7.459,1.527-12.299  c0.361-3.596,0.696-7.47,1.024-11.852c0.589-7.863,1.041-15.768,1.442-23.137c0.137-2.517,0.271-5.029,0.403-7.539  c0.263-4.969,0.534-10.104,0.83-15.103c0.266-4.474,0.491-7.864,0.732-10.99l0.22-2.709l0.239-2.805l0.479-5.655  c1.225-14.257,2.589-29.548,4.259-44.708c0.942-8.47,1.818-15.388,2.759-21.758c1.203-8.151,2.394-14.705,3.745-20.621  c1.683-7.266,3.467-12.853,5.447-17.049c1.049-2.198,2.117-3.976,3.161-5.243c0.966-1.185,1.944-2.063,2.937-2.641  c1.784-1.049,4.183-1.571,7.157-1.571c0.465,0,0.95,0.013,1.443,0.039c0.047,0.002,0.097,0.005,0.145,0.006  c0.063,0.002,0.13,0.004,0.199,0.011c0.034,0.004,0.105,0.011,0.142,0.016l0.729,0.068l0.182,0.024  c0.306,0.041,0.65,0.087,0.811,0.119c0.049,0.01,0.098,0.019,0.146,0.027c0.838,0.156,1.513,0.325,2.063,0.519  c0.021,0.008,0.044,0.015,0.065,0.022c1.342,0.459,2.488,1.075,3.506,1.882c1.215,0.953,2.347,2.197,3.399,3.724  c1.137,1.646,2.245,3.739,3.293,6.213c1.931,4.592,3.614,10.426,5.139,17.811c1.201,5.854,2.29,12.526,3.422,20.992  c0.938,6.995,1.733,13.877,2.678,22.146c0.467,3.993,0.909,8.075,1.337,12.021c0.38,3.495,0.761,7.001,1.161,10.516  c0.726,6.33,1.719,14.673,2.986,23.065c1.065,6.982,2.444,15.244,4.608,23.693c0.912,3.492,2.195,8.04,4.142,12.657  c1.119,2.647,2.309,4.936,3.64,6.999c2.143,3.286,4.493,5.745,7.215,7.559c0.035,0.024,0.075,0.051,0.102,0.068  c2.104,1.391,4.532,2.126,7.021,2.126c0.651,0,1.309-0.053,1.951-0.152c0.021-0.004,0.039-0.007,0.06-0.01  c1.302-0.213,2.583-0.555,3.81-1.017c0.038-0.015,0.077-0.028,0.115-0.044c1.167-0.456,2.315-1.03,3.418-1.711  c0.04-0.023,0.081-0.051,0.121-0.076c0.971-0.617,1.923-1.331,2.83-2.12c0.04-0.035,0.079-0.07,0.119-0.105  c0.793-0.713,1.556-1.481,2.265-2.286c0.018-0.02,0.035-0.04,0.053-0.061c2.203-2.537,4.035-5.475,5.77-9.239  c1.165-2.546,2.182-5.242,3.209-8.503c0.771-2.47,1.492-5.094,2.208-8.041c1.25-5.155,2.231-10.226,3.183-15.129  c0.385-1.929,0.758-3.885,1.128-5.828c0.556-2.922,1.082-5.682,1.661-8.396c1.078-5.088,2.105-9.022,3.232-12.397  c1.25-3.75,2.678-6.887,4.243-9.331c1.475-2.312,3.166-4.156,5.047-5.507c1.758-1.264,3.826-2.214,6.154-2.827  c2.265-0.595,4.854-0.906,7.688-0.923l1.308,0.008l0.402,0.002c0.02,0,0.039,0,0.059,0c0.033,0,0.066,0,0.1,0  c0.089,0,0.178,0.001,0.263,0.004c0.408,0.022,0.782,0.036,1.156,0.05c0.444,0.018,0.829,0.03,1.117,0.058  c0.336,0.028,0.651,0.054,0.968,0.077c0.462,0.035,0.897,0.067,1.192,0.107c0.063,0.009,0.124,0.018,0.188,0.023l1.306,0.154  c0.104,0.013,0.236,0.037,0.371,0.061c0.202,0.033,0.404,0.066,0.607,0.097c1.365,0.202,2.774,0.541,3.995,0.854  c1.581,0.462,2.741,0.859,3.745,1.287c1.29,0.55,2.457,1.138,3.557,1.792c1.146,0.702,2.241,1.487,3.256,2.339  c2.108,1.758,4.182,4.083,6.179,6.926c1.122,1.594,2.243,3.382,3.192,4.923l0.86,1.403l0.436,0.711l0.072,0.118l0.135,0.236  l0.892,1.552c0.021,0.037,0.043,0.073,0.064,0.109c0.329,0.557,0.646,1.094,0.976,1.628c1.312,2.134,2.924,4.626,4.997,7.043  c0.015,0.018,0.028,0.033,0.042,0.05c1.347,1.548,2.682,2.815,4.083,3.878c1.873,1.428,3.913,2.503,6.063,3.194  c1.828,0.595,3.809,0.93,5.87,0.99c0.214,0.008,0.425,0.013,0.634,0.013l0.104-0.001l0.4-0.001c0.104,0,0.207-0.002,0.311-0.006  l0.679-0.021l1.349-0.043c0.104-0.004,0.206-0.009,0.31-0.017c2.696-0.171,4.939-0.454,7.061-0.893  c0.028-0.006,0.056-0.012,0.083-0.019c2.785-0.601,5.423-1.49,7.839-2.647c2.303-1.092,4.606-2.523,7.008-4.36  c1.607-1.227,3.057-2.459,4.456-3.649l0.674-0.573l0.473-0.401c1.337-1.138,2.6-2.213,3.822-3.171  c2.608-2.063,5.188-3.706,7.705-4.912c2.482-1.188,5.181-2.101,8.013-2.71c2.702-0.579,5.556-0.899,8.723-0.979  c0.551-0.011,1.102-0.016,1.651-0.016c2.755,0,5.297,0.127,7.771,0.39c6.232,0.635,12.144,2.29,17.607,4.924  c0.047,0.021,0.093,0.044,0.14,0.064c0.339,0.157,0.677,0.324,1.015,0.491c0.004,0.001,0.048,0.022,0.05,0.024l0.657,0.323  c0.069,0.032,0.14,0.065,0.209,0.099l0.644,0.298c0.944,0.441,1.904,0.874,2.822,1.271c2.178,0.944,4.373,1.741,6.525,2.367  c2.039,0.603,4.216,1.084,6.612,1.463c0.895,0.152,1.711,0.249,2.436,0.334c0.226,0.027,0.45,0.055,0.677,0.082  c0.157,0.021,0.314,0.036,0.474,0.05c0.262,0.021,0.521,0.045,0.784,0.067c0.658,0.062,1.401,0.129,2.224,0.164  c1.611,0.098,3.289,0.145,5.269,0.145c1.527,0,3.028-0.027,4.48-0.055c0.604-0.012,1.205-0.021,1.808-0.031l10.877-0.189  l43.423-0.834c5.446-0.104,9.808-4.55,9.808-9.998C926.137,558.678,921.777,554.231,916.329,554.127z"/>
    </g><g data-name="business_name" fill="#a8a8a8" data="id:355" transform="translate(14.97228794572271,178.28033082939314) scale(0.7342686891859618)"><path d="M11.64,40.52q-5.12,0-7.96-2.4t-3.12-6.68l6.2,0q0.12,1.8,1.3,2.98t3.74,1.18q2.28,0,3.5-0.82t1.22-2.14q0-0.6-0.34-1.1t-0.76-0.8t-1.36-0.6t-1.5-0.44t-1.84-0.42q-1.24-0.32-1.92-0.48t-1.88-0.58t-1.88-0.82t-1.54-1.08t-1.32-1.46t-0.8-1.92t-0.34-2.5q0-3.68,2.74-6.02t7.54-2.34q4.88,0,7.66,2.44t3.1,6.56l-6.24,0q-0.2-3.96-4.68-3.96q-1.88,0-3,0.74t-1.12,2.06q0,0.68,0.34,1.22t0.78,0.86t1.34,0.66t1.54,0.5t1.84,0.44q1.36,0.32,1.98,0.46t1.9,0.54t1.92,0.76t1.54,1t1.36,1.38t0.8,1.8t0.34,2.34q0,3.84-2.92,6.24t-8.16,2.4z M35.28,19.08q4.72,0,7.88,3.1t3.16,7.62q0,4.48-3.16,7.58t-7.88,3.1t-7.86-3.08t-3.14-7.6q0-4.48,3.16-7.6t7.84-3.12z M35.28,24.12q-2.36,0-3.94,1.62t-1.58,4.06q0,2.48,1.54,4.1t3.86,1.62q2.36,0,4-1.64t1.64-4.08t-1.58-4.06t-3.94-1.62z M67.48,40l-5.48,0l0-2.04q-2.28,2.4-5.96,2.4q-3.6,0-5.76-2.28t-2.16-6l0-12.6l5.52,0l0,11.64q0,1.84,1.02,2.98t2.78,1.14q2.04,0,3.28-1.22t1.24-3.34l0-11.2l5.52,0l0,20.52z M75.2,19.48l0,2.08q0.84-1,2.42-1.72t3.54-0.72q3.6,0,5.76,2.28t2.16,6l0,12.6l-5.52,0l0-11.64q0-1.84-1-2.98t-2.76-1.14q-2.04,0-3.28,1.22t-1.24,3.34l0,11.2l-5.56,0l0-20.52l5.48,0z M101.8,35.36q2.4,0,4-1.6t1.6-3.92q0-2.28-1.64-3.9t-3.96-1.62q-2.28,0-3.84,1.62t-1.56,3.9q0,2.32,1.56,3.92t3.84,1.6z M107.32,40l0-1.52q-2.32,1.8-6,1.8q-4.24,0-7.3-3.02t-3.06-7.42t3.06-7.48t7.3-3.08q3.64,0,6,1.84l0-8.52l5.56,0l0,27.4l-5.56,0z M114.8,33.56l5.64,0q0,1.12,0.9,1.94t2.9,0.86q1.48,0,2.26-0.56t0.78-1.36q0-0.84-0.9-1.3t-2.24-0.6t-2.92-0.5t-2.92-0.9t-2.24-1.88t-0.9-3.38q0-2.84,2.32-4.74t6.16-1.9q3.88,0,6.22,1.84t2.58,4.96l-5.56,0q-0.08-1.24-0.76-1.92t-2.4-0.68q-2.92,0-2.92,1.8q0,1,1.28,1.5t3.1,0.78t3.64,0.74t3.1,1.76t1.28,3.46q0,3.48-2.56,5.2t-6.68,1.72t-6.6-1.92t-2.56-4.92z M150.72,32.48l4.32,2.76q-3.24,5.24-9.56,5.24q-4.72,0-7.78-3.08t-3.06-7.6t3.06-7.62t7.78-3.1q6.4,0,9.6,5.36l-4.36,2.72q-1.8-3-5.04-3q-2.44,0-3.94,1.56t-1.5,4.08t1.5,4.1t3.94,1.58q3.24,0,5.04-3z M167.2,24.32q-2.28,0-3.84,1.62t-1.56,3.9q0,2.32,1.56,3.92t3.84,1.6q2.4,0,4-1.6t1.6-3.92q0-2.28-1.64-3.9t-3.96-1.62z M172.72,40l0-1.52q-2.32,1.8-6,1.8q-4.24,0-7.3-3.02t-3.06-7.42t3.06-7.48t7.3-3.08q3.64,0,6,1.84l0-1.64l5.56,0l0,20.52l-5.56,0z M191.6,24.32q-2.4,0-4,1.6t-1.6,3.92q0,2.28,1.64,3.9t3.96,1.62q2.28,0,3.84-1.62t1.56-3.9q0-2.32-1.56-3.92t-3.84-1.6z M192.08,40.28q-3.64,0-6-1.84l0,8.6l-5.56,0l0-27.56l5.56,0l0,1.6q2.32-1.8,6-1.8q4.24,0,7.3,3.02t3.06,7.42t-3.06,7.48t-7.3,3.08z M224.48,35.6q-3.24,4.88-9.72,4.88q-4.84,0-7.82-3.02t-2.98-7.66q0-4.52,3.04-7.62t7.8-3.1t7.58,2.94t2.82,7.5q0,0.36-0.02,0.82t-0.04,0.78t-0.02,0.36l-15.68,0q0.44,2,1.88,3.14t3.56,1.14q3.52,0,5.44-2.72z M214.76,23.64q-3.96,0-5.12,3.72l9.96,0q-0.44-1.8-1.76-2.76t-3.08-0.96z  M250.96,29.8l-3.56-10.72l-3.56,10.72l7.12,0z M254.36,40l-1.56-4.72l-10.76,0l-1.56,4.72l-6.36,0l9.68-27.4l7.6,0l9.64,27.4l-6.68,0z M267.88,19.48l0,2.08q0.84-1,2.42-1.72t3.54-0.72q3.6,0,5.76,2.28t2.16,6l0,12.6l-5.52,0l0-11.64q0-1.84-1-2.98t-2.76-1.14q-2.04,0-3.28,1.22t-1.24,3.34l0,11.2l-5.56,0l0-20.52l5.48,0z M294.48,24.32q-2.28,0-3.84,1.62t-1.56,3.9q0,2.32,1.56,3.92t3.84,1.6q2.4,0,4-1.6t1.6-3.92q0-2.28-1.64-3.9t-3.96-1.62z M300,40l0-1.52q-2.32,1.8-6,1.8q-4.24,0-7.3-3.02t-3.06-7.42t3.06-7.48t7.3-3.08q3.64,0,6,1.84l0-1.64l5.56,0l0,20.52l-5.56,0z M313.4,40l-5.6,0l0-27.4l5.6,0l0,27.4z M335.36,19.48l-6.88,19.8q-1.48,4.2-3.6,6t-5.84,1.8l-2,0l0-5l1.68,0q2.56,0,3.8-2.64l-7.64-19.96l6.36,0l4.2,12.64l4.16-12.64l5.76,0z M345.04,19.48l5.04,0l0,4.96l-5.04,0l0,8.24q0,1.36,0.64,1.96t2.08,0.6l2.32,0l0,4.76l-2.72,0q-7.88,0-7.88-7.04l0-8.52l-2.96,0l0-4.96l2.96,0l0-5.28l5.56,0l0,5.28z M357.72,17.72l-5.56,0l0-5.12l5.56,0l0,5.12z M357.72,40l-5.56,0l0-20.52l5.56,0l0,20.52z M375.68,32.48l4.32,2.76q-3.24,5.24-9.56,5.24q-4.72,0-7.78-3.08t-3.06-7.6t3.06-7.62t7.78-3.1q6.4,0,9.6,5.36l-4.36,2.72q-1.8-3-5.04-3q-2.44,0-3.94,1.56t-1.5,4.08t1.5,4.1t3.94,1.58q3.24,0,5.04-3z M381.36,33.56l5.64,0q0,1.12,0.9,1.94t2.9,0.86q1.48,0,2.26-0.56t0.78-1.36q0-0.84-0.9-1.3t-2.24-0.6t-2.92-0.5t-2.92-0.9t-2.24-1.88t-0.9-3.38q0-2.84,2.32-4.74t6.16-1.9q3.88,0,6.22,1.84t2.58,4.96l-5.56,0q-0.08-1.24-0.76-1.92t-2.4-0.68q-2.92,0-2.92,1.8q0,1,1.28,1.5t3.1,0.78t3.64,0.74t3.1,1.76t1.28,3.46q0,3.48-2.56,5.2t-6.68,1.72t-6.6-1.92t-2.56-4.92z"/></g></svg>